<?xml version="1.0" encoding="UTF-8"?>
<svg xmlns="http://www.w3.org/2000/svg" xmlns:xlink="http://www.w3.org/1999/xlink" width="416pt" height="363pt" viewBox="0 0 416 363" version="1.1">
<g id="surface1">
<path style=" stroke:none;fill-rule:evenodd;fill:rgb(0%,0%,0%);fill-opacity:1;" d="M 26.949219 28.113281 L 26.949219 28.890625 C 19.722656 28.890625 13.527344 32.117188 8.59375 36.726563 L 5.644531 40.257813 C 2.425781 44.648438 0.742188 49.785156 0.5 54.96875 L 0.5 57.589844 C 0.8125 64.339844 3.539063 70.960938 8.472656 75.890625 C 16.996094 84.414063 31.234375 86.5625 41.882813 80.128906 C 42.988281 79.460938 44.144531 78.222656 45.359375 77.898438 C 47.121094 79.078125 49.566406 81.839844 51.125 83.28125 C 51.71875 83.832031 51.964844 83.894531 52.558594 84.441406 L 55.410156 87.296875 C 59.882813 91.234375 64.046875 95.675781 68.621094 99.496094 L 85.882813 115.6875 C 86.867188 116.636719 87.714844 117.675781 88.742188 118.535156 C 91.15625 120.550781 91.515625 120.34375 91.515625 123.277344 L 46.65625 123.019531 C 35.167969 123.019531 30.816406 135.175781 37.164063 143.660156 C 38.515625 145.464844 41.804688 147.652344 44.839844 147.652344 L 92.035156 147.652344 C 92.035156 153.636719 95.097656 165.265625 97.058594 171.152344 L 103.097656 185.597656 C 106.652344 192.703125 110.925781 199.363281 115.667969 205.699219 C 120.335938 211.9375 125.628906 217.421875 131.125 222.914063 C 133.792969 225.582031 136.90625 228.554688 140.007813 230.628906 L 137.269531 233.339844 C 137.214844 233.390625 137.046875 233.527344 136.988281 233.578125 C 136.6875 233.835938 136.71875 233.804688 136.441406 234.066406 L 131.128906 239.128906 C 130.390625 239.859375 129.914063 240.070313 129.175781 240.804688 L 87.171875 279.960938 C 86.390625 280.648438 86.003906 280.859375 85.226563 281.648438 C 84.609375 282.269531 84.0625 282.898438 83.402344 283.453125 L 81.402344 285.085938 C 80.746094 284.644531 80.507813 284.257813 79.851563 283.785156 C 79.273438 283.367188 78.632813 282.957031 77.984375 282.539063 C 64.515625 273.871094 46.21875 278.761719 38.441406 294.242188 C 37.707031 295.703125 37.144531 297.476563 36.695313 299.238281 C 36.152344 301.367188 36.09375 303.226563 35.828125 305.390625 C 35.441406 308.480469 36.867188 313.796875 38.019531 316.539063 C 41.96875 325.914063 51.574219 333.316406 62.214844 333.316406 C 62.214844 349.804688 74.363281 361.839844 90.738281 361.839844 C 101.109375 361.839844 110.394531 354.628906 113.90625 347.667969 C 115.070313 345.367188 115.847656 343.78125 116.554688 340.980469 C 118.222656 334.40625 117.195313 327.660156 114.25 321.734375 C 113.953125 321.136719 113.796875 320.761719 113.449219 320.199219 C 113.03125 319.515625 112.726563 319.304688 112.519531 318.535156 C 113.632813 316.875 116.117188 315.082031 117.640625 313.542969 L 122.894531 308.679688 C 124.625 307.359375 132.300781 299.414063 133.523438 299.085938 C 133.523438 304.226563 136.871094 313.921875 138.859375 318.648438 C 143.179688 328.925781 149.765625 338.058594 158.675781 344.726563 C 161.019531 346.476563 163.582031 348.296875 166.191406 349.65625 C 167.9375 350.5625 169.851563 351.59375 171.789063 352.359375 C 192.679688 360.609375 214.894531 360.890625 236.523438 354.894531 C 238.613281 354.3125 240.863281 353.558594 242.6875 352.757813 C 248.429688 350.242188 253.664063 347.425781 258.621094 343.542969 C 270.835938 333.972656 278.949219 318.820313 281.441406 303.605469 C 281.660156 302.261719 281.832031 301.039063 282.105469 299.863281 L 299.675781 316.265625 C 300.476563 317.070313 301.171875 318.226563 302.332031 318.535156 C 299.210938 324.4375 297.144531 327.222656 297.144531 334.871094 C 297.144531 341.425781 299.234375 347.070313 303.070313 351.765625 C 307.671875 357.390625 314.972656 362.097656 322.558594 362.097656 C 328.097656 362.097656 331.886719 361.859375 336.734375 359.417969 C 340.015625 357.769531 341.816406 356.445313 344.273438 353.996094 C 349.371094 348.910156 352.117188 342.644531 352.117188 333.835938 C 368.785156 333.835938 385.035156 315.929688 376.273438 294.898438 C 375.773438 293.691406 374.578125 291.632813 373.832031 290.597656 C 372.683594 289.003906 371.957031 288.199219 370.59375 286.835938 C 361.734375 277.960938 347.890625 276.371094 336.804688 282.996094 C 336.058594 283.441406 335.648438 283.6875 334.929688 284.230469 C 334.265625 284.730469 333.769531 285.214844 333.191406 285.601563 C 332.335938 284.328125 329.460938 281.941406 328.074219 280.605469 C 327.335938 279.894531 326.878906 279.691406 326.121094 278.929688 L 290.085938 244.953125 C 289.378906 244.25 288.964844 244.085938 288.261719 243.40625 C 287.585938 242.757813 287.109375 242.25 286.449219 241.585938 C 285.710938 240.839844 285.464844 240.644531 284.660156 240.003906 C 283.992188 239.472656 283.445313 238.84375 282.820313 238.214844 C 281.761719 237.152344 276.273438 232.382813 275.625 231.40625 C 278.898438 229.214844 282.070313 226.550781 285.019531 223.949219 C 287.953125 221.367188 291.007813 218.574219 293.578125 215.652344 L 295.527344 213.453125 C 296.355469 212.640625 296.679688 212.078125 297.46875 211.246094 C 297.976563 210.714844 297.988281 210.625 298.40625 210.109375 C 301.957031 205.714844 305.476563 201.371094 308.378906 196.484375 C 309.453125 194.679688 310.480469 193.117188 311.492188 191.300781 C 314.636719 185.644531 317.191406 180.117188 319.558594 173.953125 C 322.054688 167.445313 326.1875 153.347656 326.1875 146.613281 L 374.421875 146.613281 C 380.347656 146.613281 384.789063 141.199219 384.789063 135.464844 C 384.789063 131.53125 384.148438 128.671875 381.621094 126.1875 C 379.804688 124.402344 377.152344 123.277344 373.640625 123.277344 L 326.1875 123.277344 C 326.1875 119.949219 325.898438 120.117188 328.585938 117.632813 C 329.175781 117.085938 329.421875 117.023438 330.015625 116.472656 L 339.734375 107.261719 C 340.328125 106.714844 340.574219 106.648438 341.164063 106.101563 L 348.292969 99.484375 C 349.242188 98.648438 349.929688 97.71875 350.898438 96.90625 L 359.449219 89.117188 C 361.28125 87.277344 363.042969 85.746094 364.886719 83.921875 L 367.742188 81.335938 C 368.488281 80.582031 369.753906 79.210938 370.789063 78.9375 C 372.640625 80.175781 374.410156 81.671875 376.527344 82.53125 C 379.121094 83.585938 380.703125 84.175781 383.933594 84.722656 C 394.726563 86.542969 404.210938 81.691406 410.316406 73.601563 C 413.195313 69.785156 415.007813 64.554688 415.390625 59.269531 L 415.390625 55.160156 C 415.265625 53.472656 414.980469 51.820313 414.523438 50.242188 C 414.027344 48.535156 413.488281 46.871094 412.804688 45.480469 C 411.574219 42.984375 409.925781 40.820313 408.070313 38.800781 C 406.710938 37.320313 405.359375 36.054688 403.671875 34.902344 C 402.417969 34.046875 400.960938 33.144531 399.570313 32.523438 C 396.535156 31.171875 392.992188 30.265625 388.941406 29.925781 C 389.851563 27.726563 388.027344 21.085938 387.089844 18.8125 C 384.570313 12.691406 380.226563 7.609375 374.285156 4.648438 C 357.855469 -3.546875 338.683594 5.386719 334.59375 23.554688 C 333.179688 29.828125 334.429688 37.140625 337.605469 42.625 C 338.179688 43.617188 338.84375 44.410156 339.414063 45.484375 L 326.253906 57.996094 C 321.644531 62.050781 316.96875 66.207031 312.640625 70.574219 C 311.90625 71.316406 309.363281 73.792969 308.554688 74.011719 C 308.207031 72.707031 305.453125 69.4375 304.628906 68.339844 C 301.382813 64 295.234375 56.730469 291 53.1875 C 289.289063 51.761719 287.796875 49.984375 285.996094 48.597656 C 285.164063 47.953125 284.296875 47.199219 283.460938 46.464844 C 274.566406 38.644531 260.882813 31.445313 249.84375 27.183594 C 246.269531 25.804688 242.628906 24.75 239.007813 23.757813 C 232.183594 21.886719 225.574219 20.878906 218.335938 20.3125 C 209.671875 19.636719 199.277344 19.820313 191.011719 21.03125 C 185.167969 21.886719 180.035156 22.84375 174.808594 24.277344 C 158.433594 28.757813 144.492188 36.113281 131.886719 46.703125 L 126.703125 51.371094 C 126.085938 51.894531 125.894531 51.941406 125.285156 52.546875 C 121.988281 55.808594 119.007813 59.230469 116.089844 62.800781 C 113.589844 65.859375 110.980469 69.121094 108.972656 72.535156 C 108.582031 73.195313 108.398438 73.609375 107.851563 74.011719 C 105.789063 72.628906 91.917969 58.871094 88.222656 55.78125 C 85.582031 53.574219 83.265625 50.640625 80.476563 48.488281 C 78.941406 47.304688 78.023438 45.742188 76.476563 44.707031 C 80.667969 38.449219 81.921875 34.359375 81.921875 26.296875 C 81.921875 22.808594 80.492188 18.539063 79.332031 16.179688 C 75.246094 7.851563 66.097656 0.625 56.25 0.625 C 50.511719 0.625 47.441406 1.105469 42.578125 3.289063 C 33.164063 7.519531 26.949219 17.746094 26.949219 28.113281 "/>
<path style=" stroke:none;fill-rule:evenodd;fill:rgb(99.609375%,99.609375%,99.609375%);fill-opacity:1;" d="M 319.054688 147.917969 L 98.84375 147.914063 C 100.597656 166.046875 112.261719 191.632813 123.933594 205.476563 L 134.9375 217.023438 C 142.613281 224.273438 155.0625 231.3125 164.910156 235.03125 C 190.945313 244.855469 226.050781 244.667969 252.128906 234.621094 C 261.03125 231.195313 269.390625 226.539063 276.597656 220.976563 L 286.824219 212.011719 C 287.425781 211.402344 287.746094 211.011719 288.3125 210.386719 C 288.886719 209.75 289.457031 209.363281 290.023438 208.730469 C 293.519531 204.832031 298.320313 198.597656 301.019531 194.3125 C 302.652344 191.71875 304.269531 189.019531 305.820313 186.148438 C 308.808594 180.605469 311.378906 174.695313 313.710938 168.355469 C 315.644531 163.09375 318.457031 153.925781 319.054688 147.917969 "/>
<path style=" stroke:none;fill-rule:evenodd;fill:rgb(100%,81.25%,12.156677%);fill-opacity:1;" d="M 109.144531 88.367188 L 307.882813 88.382813 C 307.019531 85.214844 302.421875 77.984375 300.707031 75.371094 L 290.90625 62.613281 C 290.417969 62.007813 290.152344 61.886719 289.613281 61.320313 C 288.707031 60.367188 288.109375 59.546875 287.152344 58.589844 C 283.796875 55.234375 280.277344 51.957031 276.488281 49.03125 C 258.152344 34.875 236.019531 26.152344 208.464844 26.164063 C 182.304688 26.179688 157.203125 34.78125 140.445313 48.777344 L 136.371094 52.214844 C 135.824219 52.679688 135.445313 52.855469 134.921875 53.371094 C 126.441406 61.777344 123.609375 64.375 116.332031 75.230469 C 114.621094 77.78125 110 85.148438 109.144531 88.367188 "/>
<path style=" stroke:none;fill-rule:evenodd;fill:rgb(100%,0%,6.665039%);fill-opacity:1;" d="M 98.515625 122.316406 L 318.664063 122.058594 C 319.464844 116.949219 316.335938 105.59375 314.332031 100.386719 C 313.535156 98.3125 312.386719 96.050781 311.761719 94.167969 L 106.039063 94.152344 C 104.722656 94.480469 101.289063 105.710938 100.972656 106.800781 C 99.5 111.84375 98.667969 116.761719 98.515625 122.316406 "/>
<path style=" stroke:none;fill-rule:evenodd;fill:rgb(99.609375%,99.609375%,99.609375%);fill-opacity:1;" d="M 276.695313 286.394531 L 269.523438 290.394531 C 229.171875 311.035156 185.335938 311.265625 146.039063 288.125 C 144.773438 287.378906 143.699219 286.730469 142.519531 285.945313 C 141.398438 285.199219 140.066406 284.199219 138.824219 283.683594 C 139.660156 295.65625 139.261719 301.234375 143.445313 313.28125 C 149.226563 329.949219 160.179688 341.417969 177.105469 348.074219 C 193.753906 354.617188 219.765625 354.71875 236.664063 349.078125 C 240.949219 347.648438 244.855469 345.875 248.492188 343.78125 C 250.878906 342.410156 256.371094 338.554688 258.226563 336.402344 C 258.9375 335.578125 259.484375 335.070313 260.320313 334.351563 C 261.644531 333.214844 264.984375 328.683594 266.019531 327.078125 C 268.238281 323.632813 270.117188 320.046875 271.789063 315.738281 C 274.976563 307.535156 277.011719 296.171875 276.695313 286.394531 "/>
<path style=" stroke:none;fill-rule:evenodd;fill:rgb(99.609375%,99.609375%,99.609375%);fill-opacity:1;" d="M 282.601563 291.660156 C 285.972656 294.28125 288.703125 297.421875 291.417969 299.882813 L 300.269531 308.148438 C 300.925781 308.71875 301.453125 309.128906 302.085938 309.707031 C 302.789063 310.351563 303.144531 310.929688 303.859375 311.558594 C 305.167969 312.703125 310.367188 317.261719 311 318.277344 C 310.703125 318.765625 310.953125 318.386719 310.628906 318.769531 C 308.148438 321.667969 306.691406 322.960938 305.054688 326.96875 C 300.484375 338.136719 306.710938 351.222656 318.160156 354.828125 C 329.789063 358.488281 342.203125 351.574219 345.132813 340.070313 C 346.492188 334.730469 345.449219 332.039063 344.796875 326.9375 C 350.074219 327.363281 353.007813 328.097656 358.125 326.347656 C 369.582031 322.425781 375.585938 309.546875 370.714844 298.125 C 364.296875 283.078125 345.476563 282.300781 337.332031 290.523438 C 336.300781 291.566406 334.394531 293.285156 333.753906 294.460938 C 332.328125 293.847656 331.027344 292.203125 329.851563 291.019531 C 329.234375 290.402344 328.59375 289.894531 327.917969 289.316406 C 327.058594 288.578125 326.816406 288.242188 325.976563 287.371094 L 312.582031 274.839844 C 311.820313 274.152344 311.265625 273.699219 310.492188 273.03125 L 291.285156 254.902344 C 288.164063 252.210938 284.75 248.589844 281.746094 246.027344 L 275.914063 240.453125 C 274.886719 239.308594 273.160156 237.996094 272 236.945313 L 276.324219 248.851563 C 280.695313 262.773438 282.570313 276.820313 282.601563 291.660156 "/>
<path style=" stroke:none;fill-rule:evenodd;fill:rgb(99.609375%,99.609375%,99.609375%);fill-opacity:1;" d="M 81.230469 294.035156 C 78.664063 291.59375 77.617188 289.75 73.972656 287.585938 C 63.78125 281.542969 50.878906 285.542969 45.238281 295.078125 C 36.5 309.851563 47.832031 326.992188 63.253906 326.992188 L 69.796875 326.445313 C 68.453125 334.464844 67.867188 338.816406 71.875 345.433594 C 74.476563 349.730469 79.152344 353.671875 85.601563 355.042969 C 99.292969 357.953125 110.996094 346.925781 110.964844 334.351563 C 110.957031 330.914063 110.089844 327.625 108.734375 324.910156 C 106.773438 320.988281 104.144531 318.917969 103.625 318.015625 C 104.058594 317.09375 104.445313 316.980469 105.453125 316.132813 C 108.726563 313.375 112.839844 308.996094 116.910156 305.550781 C 117.703125 304.878906 118.09375 304.289063 118.851563 303.609375 L 126.542969 296.515625 C 127.871094 295.386719 128.976563 294.148438 130.308594 293.019531 C 132.675781 291.007813 132.703125 292.003906 132.6875 287.9375 C 132.644531 274.957031 134.269531 261.054688 137.929688 248.777344 C 138.492188 246.890625 139.109375 245.082031 139.738281 243.328125 C 140.378906 241.558594 141.355469 239.679688 141.882813 237.949219 C 140.472656 238.984375 139.425781 239.992188 138.074219 241.402344 L 121.050781 257.058594 C 120.277344 257.828125 120.035156 258.183594 119.234375 258.863281 C 117.898438 259.996094 116.804688 261.21875 115.46875 262.359375 L 94.523438 281.859375 C 93.800781 282.488281 93.242188 282.914063 92.554688 283.53125 L 83.210938 292.332031 C 82.507813 292.933594 81.855469 293.433594 81.230469 294.035156 "/>
<path style=" stroke:none;fill-rule:evenodd;fill:rgb(99.609375%,99.609375%,99.609375%);fill-opacity:1;" d="M 34.363281 35.78125 C 29.054688 35.839844 27.113281 34.472656 21.394531 36.316406 C 10.339844 39.882813 3.597656 52.5 8.277344 64.15625 C 12.722656 75.226563 25.742188 80.835938 36.964844 75.46875 C 41.179688 73.453125 42.652344 71.445313 45.195313 68.949219 L 51.035156 74.300781 C 52.132813 75.234375 52.859375 76.191406 53.929688 77.105469 L 64.316406 86.695313 C 64.875 87.203125 65.148438 87.652344 65.679688 88.171875 L 86.308594 107.476563 C 87.21875 108.476563 88.335938 109.214844 89.332031 110.167969 C 90.519531 111.304688 90.972656 112.070313 92.292969 112.933594 C 92.835938 111.941406 93.996094 105.738281 94.496094 103.960938 C 96.78125 95.832031 99.109375 90.871094 102.632813 83.570313 C 103.246094 82.300781 104.25 81.046875 104.554688 79.605469 C 102.46875 78.117188 101.566406 76.910156 99.972656 75.414063 L 86.136719 62.53125 C 84.535156 61.152344 83.183594 59.675781 81.582031 58.273438 L 67.570313 45.320313 C 68.296875 42.929688 77.734375 37.507813 75.261719 24.128906 C 73.835938 16.410156 68.097656 10.332031 61.480469 8.09375 C 54.574219 5.757813 47.296875 7.011719 41.570313 11.355469 C 41.214844 11.625 40.875 11.851563 40.546875 12.152344 C 40.160156 12.511719 39.921875 12.867188 39.546875 13.21875 C 37.214844 15.414063 35.214844 18.496094 34.105469 22.574219 C 32.390625 28.863281 34.144531 31.589844 34.363281 35.78125 "/>
<path style=" stroke:none;fill-rule:evenodd;fill:rgb(99.609375%,99.609375%,99.609375%);fill-opacity:1;" d="M 348.453125 46.082031 L 337.230469 56.519531 C 336.425781 57.261719 335.652344 57.792969 334.84375 58.554688 L 330.351563 62.871094 C 329.625 63.664063 328.941406 64.113281 328.132813 64.808594 L 316.703125 75.417969 C 315.28125 76.882813 312.800781 78.84375 312.304688 79.714844 C 315.417969 85.964844 316.484375 86.714844 319.78125 94.679688 C 320.949219 97.507813 321.882813 100.15625 322.789063 103.078125 C 323.234375 104.496094 324.84375 111.558594 325.152344 112.066406 C 327.050781 110.421875 328.925781 108.664063 330.851563 106.933594 C 331.378906 106.457031 331.59375 106.121094 332.109375 105.609375 L 347.875 91.03125 C 351.289063 88.15625 355.9375 83.304688 359.195313 80.566406 C 359.695313 80.144531 360.140625 79.8125 360.578125 79.355469 C 362.878906 76.953125 365.8125 74.617188 367.710938 72.742188 L 370.628906 69.984375 C 372.417969 72.0625 375.898438 75.132813 378.519531 76.394531 C 395.074219 84.335938 412.171875 69.992188 408.6875 53.226563 C 407.152344 45.855469 401.789063 39.871094 394.820313 37.535156 C 389.710938 35.824219 386.925781 36.539063 381.640625 36.9375 C 382.21875 31.832031 383.417969 29.371094 382.046875 23.855469 C 379.109375 12.046875 366.480469 5.082031 354.8125 9.019531 C 341.277344 13.585938 335.882813 30.132813 344.921875 42.054688 C 346.027344 43.511719 347.726563 44.652344 348.453125 46.082031 "/>
<path style=" stroke:none;fill-rule:evenodd;fill:rgb(100%,81.25%,12.156677%);fill-opacity:1;" d="M 46.160156 128.632813 C 40.492188 130.097656 39.914063 140.589844 46.007813 141.808594 C 48.273438 142.261719 271.859375 141.910156 286.773438 141.910156 C 288.367188 141.910156 372.449219 142.207031 374.292969 141.808594 C 380.03125 140.5625 379.992188 130.023438 374.273438 128.644531 C 372.4375 128.199219 102.183594 128.535156 67.917969 128.535156 C 64.3125 128.535156 48.339844 128.066406 46.160156 128.632813 "/>
<path style=" stroke:none;fill-rule:evenodd;fill:rgb(0%,0%,0%);fill-opacity:1;" d="M 161.851563 154.058594 C 144.777344 155.425781 132.492188 170.5625 135.320313 187.617188 C 137.707031 202.007813 151.285156 216.765625 168.519531 214.300781 C 182.792969 212.257813 197.300781 197.898438 194.996094 180.859375 C 193.078125 166.703125 178.332031 152.738281 161.851563 154.058594 "/>
<path style=" stroke:none;fill-rule:evenodd;fill:rgb(0%,0%,0%);fill-opacity:1;" d="M 250.746094 154.546875 C 241.128906 155.148438 232.027344 160.519531 227.28125 168.285156 C 223.8125 173.96875 222.554688 179.390625 223.101563 186.496094 C 224.484375 204.578125 238.558594 214.597656 255.398438 214.105469 C 271.53125 213.636719 283.449219 198.894531 282.824219 181.886719 C 282.238281 165.933594 267.78125 153.476563 250.746094 154.546875 "/>
<path style=" stroke:none;fill-rule:evenodd;fill:rgb(99.609375%,99.609375%,99.609375%);fill-opacity:1;" d="M 171.851563 293.371094 C 177.242188 294.652344 179.90625 296.082031 187.644531 297.605469 C 191.585938 298.378906 201.855469 300.003906 205.757813 299.503906 L 205.78125 277.660156 C 203.085938 277.21875 195.378906 277.21875 189.246094 276.277344 C 186.660156 275.882813 184.269531 275.457031 181.78125 274.9375 C 179.503906 274.464844 176.625 273.507813 174.554688 273.242188 C 173.964844 275.988281 171.871094 290.875 171.851563 293.371094 "/>
<path style=" stroke:none;fill-rule:evenodd;fill:rgb(99.609375%,99.609375%,99.609375%);fill-opacity:1;" d="M 211.351563 277.566406 L 211.222656 299.59375 C 219.464844 299.402344 226.84375 298.367188 234.703125 296.566406 C 236.992188 296.039063 239.582031 295.132813 241.734375 294.765625 L 239.0625 273.863281 C 234.988281 274.316406 230.25 275.617188 225.835938 276.25 C 223.539063 276.578125 221.179688 276.832031 218.835938 277.046875 C 216.851563 277.230469 213.011719 277.207031 211.351563 277.566406 "/>
<path style=" stroke:none;fill-rule:evenodd;fill:rgb(99.609375%,99.609375%,99.609375%);fill-opacity:1;" d="M 178.84375 246.433594 L 175.429688 267.175781 C 179.734375 269.308594 200.339844 272.40625 205.695313 271.945313 L 205.777344 249.5 C 200.824219 249.203125 196.449219 249.050781 191.695313 248.460938 C 189.496094 248.1875 179.671875 246.148438 178.84375 246.433594 "/>
<path style=" stroke:none;fill-rule:evenodd;fill:rgb(99.609375%,99.609375%,99.609375%);fill-opacity:1;" d="M 240.351563 245.445313 L 244.105469 266.816406 C 248.644531 266.011719 268.617188 257.933594 271.414063 255.523438 C 271.003906 252.636719 265.777344 238.707031 264.398438 236.980469 C 259.78125 239.476563 246.148438 244.464844 240.351563 245.445313 "/>
<path style=" stroke:none;fill-rule:evenodd;fill:rgb(99.609375%,99.609375%,99.609375%);fill-opacity:1;" d="M 244.96875 272.378906 L 247.746094 292.558594 C 251.453125 292.417969 272.09375 281.925781 275.808594 278.34375 C 275.84375 272.765625 273.859375 266.648438 273.105469 261.414063 C 271.046875 262.179688 268.644531 263.550781 266.492188 264.539063 C 262.644531 266.3125 256.566406 268.660156 252.480469 269.976563 C 250.632813 270.574219 246.445313 271.613281 244.96875 272.378906 "/>
<path style=" stroke:none;fill-rule:evenodd;fill:rgb(99.609375%,99.609375%,99.609375%);fill-opacity:1;" d="M 211.332031 249.558594 L 211.21875 272.035156 C 218.886719 271.808594 224.472656 271.210938 231.867188 269.84375 C 233.910156 269.464844 236.152344 268.808594 238.140625 268.546875 C 238.105469 267.917969 235.472656 248.46875 234.652344 246.851563 C 230.933594 247.339844 227.234375 248.171875 223.410156 248.621094 L 211.332031 249.558594 "/>
<path style=" stroke:none;fill-rule:evenodd;fill:rgb(99.609375%,99.609375%,99.609375%);fill-opacity:1;" d="M 139.710938 276.269531 C 141.28125 278.003906 149.152344 282.632813 151.992188 284.246094 C 156.027344 286.539063 160.984375 289.121094 165.679688 290.910156 L 166.046875 289.820313 C 166.113281 289.507813 166.15625 289.019531 166.199219 288.691406 C 166.894531 283.214844 168.175781 276.402344 168.691406 271.398438 C 166.597656 270.488281 164.019531 269.671875 161.789063 268.75 C 159.429688 267.777344 157.351563 266.792969 155.003906 265.683594 C 152.714844 264.601563 150.605469 263.472656 148.527344 262.304688 L 142.320313 258.640625 C 141.199219 263.902344 139.964844 270.746094 139.710938 276.269531 "/>
<path style=" stroke:none;fill-rule:evenodd;fill:rgb(99.609375%,99.609375%,99.609375%);fill-opacity:1;" d="M 143.796875 252.765625 C 145.070313 253.261719 148.171875 255.453125 149.769531 256.394531 C 151.878906 257.640625 153.800781 258.589844 156.050781 259.710938 C 158.839844 261.105469 166.722656 264.859375 169.566406 265.300781 C 170.0625 264.242188 171.066406 256.800781 171.386719 255.035156 C 171.996094 251.667969 172.820313 248.097656 173.402344 244.863281 C 171.714844 244.152344 165.242188 242.382813 161.585938 240.945313 L 150.644531 236.105469 C 148.253906 240.097656 144.65625 247.199219 143.796875 252.765625 "/>
<path style=" stroke:none;fill-rule:evenodd;fill:rgb(0%,0%,0%);fill-opacity:1;" d="M 206.550781 213.359375 C 201.589844 214.199219 195.601563 218.3125 197.859375 224.375 C 201.914063 235.265625 223.765625 231.164063 220.109375 219.75 C 218.683594 215.296875 212.617188 212.328125 206.550781 213.359375 "/>
<path style=" stroke:none;fill-rule:evenodd;fill:rgb(0%,0%,0%);fill-opacity:1;" d="M 151.039063 55.605469 C 149.4375 56.183594 149.527344 56.558594 147.632813 58.296875 C 146.519531 59.316406 145.859375 60.277344 144.691406 61.320313 C 142.261719 63.488281 135.90625 72.183594 134.3125 74.800781 C 133.601563 75.972656 132.347656 77.402344 133.121094 79.328125 C 133.609375 80.546875 135.355469 81.683594 137.140625 81.011719 C 138.484375 80.507813 140.863281 76.300781 142.3125 74.242188 C 144.578125 71.027344 147.683594 67.355469 150.363281 64.398438 C 153.316406 61.144531 155.886719 60.3125 154.828125 57.371094 C 154.351563 56.042969 152.851563 54.957031 151.039063 55.605469 "/>
<path style=" stroke:none;fill-rule:evenodd;fill:rgb(0%,0%,0%);fill-opacity:1;" d="M 269.355469 59.636719 C 268.050781 60.101563 267.097656 61.363281 267.335938 63.074219 C 267.574219 64.78125 270.15625 66.449219 272.40625 69.453125 C 280.863281 80.746094 278.519531 87.789063 283.773438 86.050781 C 288.742188 84.410156 282.371094 73.171875 280.742188 70.445313 C 279.257813 67.953125 277.773438 65.914063 276.121094 63.914063 C 274.328125 61.746094 271.933594 58.722656 269.355469 59.636719 "/>
<path style=" stroke:none;fill-rule:evenodd;fill:rgb(0%,0%,0%);fill-opacity:1;" d="M 162.875 63.601563 C 160.59375 64.839844 156.539063 71.421875 154.792969 74.273438 C 153.832031 75.84375 152.367188 78.636719 151.671875 80.492188 C 150.59375 83.382813 153.121094 85.992188 155.902344 84.730469 C 157.554688 83.976563 158.410156 80.691406 159.421875 78.90625 C 160.59375 76.835938 161.746094 74.941406 162.992188 73.140625 L 167.007813 67.820313 C 168.371094 65.105469 165.578125 62.136719 162.875 63.601563 "/>
<path style=" stroke:none;fill-rule:evenodd;fill:rgb(0%,0%,0%);fill-opacity:1;" d="M 252.363281 67.480469 C 247.898438 69.09375 251.746094 73.84375 252.871094 76.792969 C 254.0625 79.921875 254.285156 85.976563 258.546875 84.675781 C 262.453125 83.480469 259.828125 77.273438 258.773438 74.527344 C 257.769531 71.910156 255.871094 66.214844 252.363281 67.480469 "/>
<path style=" stroke:none;fill-rule:evenodd;fill:rgb(0%,0%,0%);fill-opacity:1;" d="M 176.980469 69.105469 C 174.878906 69.796875 172.890625 73.449219 171.78125 75.445313 C 168.972656 80.484375 172.644531 82.277344 175.109375 81.367188 C 176.628906 80.808594 176.679688 79.660156 177.542969 78.09375 C 179.574219 74.394531 181.980469 73.179688 180.636719 70.460938 C 180.097656 69.371094 178.644531 68.558594 176.980469 69.105469 "/>
</g>
</svg>
